<?xml version="1.0" standalone="no"?>
<!DOCTYPE svg PUBLIC "-//W3C//DTD SVG 20010904//EN"
 "http://www.w3.org/TR/2001/REC-SVG-20010904/DTD/svg10.dtd">
<svg version="1.0" xmlns="http://www.w3.org/2000/svg"
 width="2048.000000pt" height="2048.000000pt" viewBox="0 0 2048.000000 2048.000000"
 preserveAspectRatio="xMidYMid meet">

<g transform="translate(0.000000,2048.000000) scale(0.100000,-0.100000)"
fill="#000000" stroke="none">
<path d="M0 10240 l0 -10240 10240 0 10240 0 0 10240 0 10240 -10240 0 -10240
0 0 -10240z m11420 8095 c741 -56 1527 -236 2187 -501 554 -222 1066 -507
1533 -852 476 -353 1002 -893 1390 -1428 419 -577 666 -1059 906 -1769 235
-693 360 -1352 405 -2135 15 -259 6 -876 -16 -1135 -52 -618 -169 -1243 -337
-1804 l-43 -145 -70 -3 c-38 -1 -81 -4 -95 -6 -14 -3 -42 -5 -63 -6 -32 -1
-47 -10 -95 -58 -152 -151 -373 -308 -636 -453 -44 -24 -75 -37 -71 -29 5 8
59 88 121 179 143 212 194 300 319 545 154 304 289 660 360 950 234 956 154
1857 -231 2605 -78 151 -127 232 -231 380 -113 161 -324 385 -483 513 -230
185 -575 388 -790 465 -317 114 -520 147 -855 138 -344 -8 -365 -12 -401 -66
-24 -35 -26 -47 -21 -99 l5 -60 -67 -6 c-966 -94 -1817 -624 -2398 -1495 -353
-530 -561 -1110 -629 -1760 -20 -195 -15 -630 10 -820 45 -344 109 -578 261
-965 203 -516 390 -803 773 -1184 l165 -164 -329 7 c-1519 31 -2858 205 -4234
551 -502 126 -1218 344 -1180 358 8 4 56 17 105 31 479 133 918 390 1309 766
518 499 974 1296 1152 2015 45 182 80 383 99 569 18 175 20 533 5 686 -72 687
-352 1298 -804 1752 -157 157 -377 326 -591 453 -433 256 -934 370 -1487 337
-187 -11 -489 -45 -509 -57 -5 -4 -19 -25 -30 -47 -16 -32 -19 -50 -14 -88 l7
-48 -79 -17 c-105 -23 -345 -102 -468 -155 -292 -124 -551 -284 -805 -498
-120 -101 -343 -329 -439 -449 -40 -51 -80 -93 -87 -93 -8 0 -15 -6 -15 -12
-1 -7 -2 -17 -3 -23 0 -5 -38 -65 -84 -133 -88 -130 -215 -351 -252 -440 -43
-101 -32 -42 30 155 187 599 449 1180 781 1735 97 162 497 751 612 903 185
242 212 269 456 462 485 385 719 583 1041 883 154 144 171 157 273 208 42 20
105 64 143 97 74 66 287 229 319 243 142 66 198 105 231 165 19 34 492 259
784 372 201 78 191 81 116 -27 -342 -485 -643 -1073 -795 -1552 -80 -251 -143
-523 -175 -752 -14 -100 -11 -350 4 -359 14 -9 110 233 145 365 69 259 131
453 355 1105 155 451 310 807 508 1165 l79 144 114 38 c543 184 1223 318 1809
357 222 15 779 12 1000 -4z m6811 -2095 c303 -31 581 -128 770 -270 251 -188
440 -507 543 -915 115 -460 153 -825 112 -1060 -49 -272 -174 -563 -296 -685
-52 -52 -240 -201 -536 -425 -113 -85 -333 -229 -340 -222 -1 1 -14 70 -29
152 -75 416 -195 877 -310 1190 -50 136 -90 275 -105 362 -10 60 -15 72 -34
77 -17 4 -32 30 -66 113 -116 285 -331 710 -515 1018 -70 117 -263 413 -318
486 -11 16 -19 31 -16 33 11 11 253 86 319 100 78 16 273 43 350 49 105 8 376
6 471 -3z m-12831 -2130 c-8 -5 -19 -10 -25 -10 -5 0 -3 5 5 10 8 5 20 10 25
10 6 0 3 -5 -5 -10z m-2850 -426 c94 -17 228 -63 315 -106 88 -45 275 -168
275 -182 0 -7 -18 -63 -40 -125 -91 -255 -208 -670 -274 -976 -133 -612 -192
-1128 -203 -1799 l-6 -368 -71 6 c-328 31 -555 86 -790 195 -142 65 -160 77
-259 180 -88 92 -103 113 -156 224 -119 245 -141 346 -177 792 -34 433 1 753
137 1231 57 203 77 250 156 369 218 329 452 511 720 559 106 19 273 19 373 0z
m1740 -776 c367 -279 807 -560 1264 -810 408 -222 1158 -590 1404 -688 51 -20
79 -36 71 -40 -6 -5 -46 -11 -88 -15 -99 -9 -286 -41 -382 -65 -207 -53 -712
-284 -999 -457 -30 -18 -60 -33 -65 -33 -6 0 -19 15 -30 33 -44 77 -294 463
-456 707 -274 412 -524 751 -817 1110 -74 91 -139 170 -144 177 -12 15 89 186
106 180 6 -3 68 -47 136 -99z m-64 -616 c62 -149 93 -231 344 -907 107 -286
282 -767 330 -905 l23 -64 -34 -26 c-19 -14 -168 -137 -332 -275 -164 -137
-329 -273 -365 -302 l-67 -52 -20 25 c-11 14 -50 80 -88 147 -189 342 -309
742 -348 1170 -15 160 -6 532 15 675 45 296 141 616 263 872 l55 115 79 -159
c44 -87 109 -228 145 -314z m12024 26 c19 -24 26 -37 17 -29 -19 15 -61 71
-54 71 2 0 19 -19 37 -42z m-4170 -419 c0 -6 -4 -7 -10 -4 -5 3 -10 11 -10 16
0 6 5 7 10 4 6 -3 10 -11 10 -16z m8 -158 c308 -208 861 -509 1307 -711 423
-192 983 -422 1228 -506 l138 -47 -138 -67 c-175 -84 -513 -264 -662 -350
l-115 -67 -115 136 c-306 362 -557 623 -966 1004 -159 149 -344 324 -411 389
-113 110 -154 138 -154 104 0 -8 23 -41 50 -73 277 -319 626 -798 822 -1128
67 -112 356 -612 376 -652 11 -20 4 -27 -91 -94 -160 -114 -227 -166 -807
-629 -300 -239 -548 -436 -552 -438 -9 -4 -90 146 -142 266 -129 295 -212 606
-252 942 -24 194 -24 574 0 755 35 274 108 570 201 811 42 109 184 414 192
414 2 0 43 -26 91 -59z m-3548 -625 c0 -17 -77 -266 -115 -371 -56 -156 -209
-471 -296 -610 -456 -728 -1163 -1239 -1929 -1395 -58 -12 -137 -20 -193 -20
l-96 0 9 29 c4 15 13 37 19 49 14 26 57 276 70 407 10 95 9 108 -24 270 -41
203 -97 411 -170 635 -30 90 -51 167 -47 171 4 4 66 21 137 38 311 74 516 111
740 136 77 8 194 26 260 40 176 36 271 45 452 45 148 0 168 2 228 25 58 21
172 84 216 118 25 19 109 146 109 164 0 9 9 26 19 37 25 26 61 118 61 154 0
47 8 50 90 40 98 -13 266 -3 360 21 80 20 100 23 100 17z m-5270 -386 c13
-104 63 -383 92 -505 35 -154 91 -292 262 -650 120 -250 280 -489 455 -678
l57 -62 -79 -225 c-150 -429 -196 -566 -232 -690 -40 -139 -60 -261 -44 -271
7 -4 0 -45 -18 -112 -33 -126 -22 -139 -117 151 -97 293 -147 478 -140 507 4
17 1 32 -11 44 -20 23 -43 112 -100 396 -113 565 -158 1015 -159 1595 -1 312
13 716 21 620 2 -19 8 -73 13 -120z m13445 -402 c-138 -950 -618 -1779 -1359
-2352 -95 -73 -280 -194 -401 -260 -105 -58 -356 -171 -424 -191 l-24 -7 23
38 c13 22 29 46 37 55 7 8 13 22 13 29 0 8 8 23 19 34 37 41 85 226 112 430
18 138 7 341 -24 456 -69 254 -275 672 -455 923 -19 26 -33 50 -31 52 10 9
414 142 579 190 327 95 486 132 810 186 310 51 426 86 682 204 159 73 199 100
229 153 16 28 38 45 81 65 32 15 77 47 101 70 23 23 44 41 45 40 2 -1 -4 -52
-13 -115z m-11616 -411 c73 -226 107 -351 155 -583 35 -169 55 -239 105 -368
34 -87 59 -161 56 -164 -10 -10 -246 73 -369 130 -227 105 -368 203 -560 388
-96 93 -217 231 -299 342 l-27 37 24 16 c38 25 424 195 606 267 235 93 244 96
252 92 4 -3 29 -73 57 -157z m8655 -724 c71 -158 104 -264 177 -562 54 -225
122 -447 171 -561 11 -25 37 -92 59 -149 62 -165 156 -347 195 -376 19 -14 38
-34 44 -44 9 -18 -2 -22 -143 -57 -179 -43 -291 -52 -463 -35 -413 42 -838
201 -1127 422 -134 102 -247 209 -357 337 -97 113 -267 340 -259 346 2 2 205
107 450 234 690 358 1174 591 1191 574 4 -4 32 -62 62 -129z m4556 -454 c43
-70 119 -140 185 -170 55 -24 80 -47 198 -176 367 -401 637 -768 808 -1098
287 -553 325 -1001 142 -1710 -126 -492 -335 -896 -509 -985 -42 -21 -62 -25
-139 -25 -77 1 -112 7 -235 44 -751 225 -1074 423 -1619 991 l-179 186 90 143
c291 463 644 1164 838 1664 142 367 274 762 351 1049 19 71 36 128 39 128 3 0
16 -19 30 -41z m-13780 -256 c227 -165 435 -272 695 -357 61 -19 132 -40 160
-46 27 -6 196 -85 376 -174 179 -90 332 -165 338 -167 8 -3 -18 -80 -79 -234
-116 -291 -214 -583 -283 -846 -181 -678 -240 -1080 -241 -1626 -1 -167 -4
-303 -7 -303 -7 0 -212 211 -330 341 -408 446 -802 1016 -1064 1539 l-47 94
26 216 c14 118 37 314 51 435 47 393 94 636 202 1038 l56 208 26 -24 c14 -14
69 -56 121 -94z m12549 -875 c-180 -397 -401 -799 -637 -1163 -91 -140 -290
-423 -367 -520 l-47 -60 6 70 c29 323 34 547 15 726 -5 57 -26 187 -44 289
-19 101 -31 188 -27 191 4 4 90 40 192 80 314 125 682 317 895 468 39 27 71
50 72 50 1 1 -25 -59 -58 -131z m-10733 26 c834 -355 1824 -640 2857 -823 59
-10 110 -21 113 -24 5 -5 -111 -521 -227 -1012 -123 -515 -237 -1131 -339
-1822 -41 -278 -46 -565 -14 -880 8 -75 14 -73 -124 -38 -414 104 -1059 335
-1434 513 -323 153 -718 396 -1066 655 l-122 92 7 85 c14 167 8 666 -10 840
-59 573 -46 1064 48 1815 26 204 116 675 129 675 2 0 84 -34 182 -76z m9574
-676 c0 -112 -8 -227 -25 -368 -17 -140 -28 -302 -35 -510 -5 -168 -12 -339
-16 -380 l-6 -75 -135 -155 c-366 -418 -732 -761 -1210 -1135 -227 -178 -583
-415 -888 -590 -155 -89 -565 -300 -659 -339 -36 -15 -38 -15 -31 2 28 66 79
244 99 351 46 235 51 312 50 736 -1 516 -24 866 -85 1277 -84 571 -109 746
-109 775 0 37 -28 32 350 60 276 20 270 20 402 4 217 -25 541 -9 782 39 194
39 445 120 631 205 33 15 143 49 245 75 179 47 447 127 560 169 30 11 61 20
68 20 9 1 12 -38 12 -161z m-6235 -223 c920 -133 1917 -193 2779 -167 209 6
382 9 385 6 9 -9 16 -618 9 -829 -13 -411 -79 -1055 -153 -1490 -24 -143 -51
-312 -60 -375 -20 -147 -32 -536 -18 -577 l11 -30 -177 -66 c-723 -269 -1353
-380 -2156 -380 -396 0 -660 20 -1055 79 -96 14 -179 30 -183 34 -5 4 5 74 22
156 73 364 85 520 111 1449 13 476 24 663 66 1135 36 407 89 968 100 1054 l6
48 37 -6 c20 -3 144 -22 276 -41z m-5774 -964 c232 -399 537 -824 868 -1211
213 -249 667 -695 874 -860 31 -25 56 -49 57 -54 0 -11 -65 -74 -155 -149 -39
-33 -148 -133 -243 -224 -95 -91 -190 -175 -212 -186 -63 -34 -288 -197 -347
-250 -29 -27 -83 -85 -119 -128 -55 -66 -84 -90 -167 -140 -191 -112 -346
-156 -522 -146 -109 6 -393 50 -465 71 -130 38 -361 155 -474 238 -157 117
-369 326 -454 450 -49 71 -137 255 -165 343 -27 87 -59 240 -78 375 -18 125
-13 542 7 634 46 203 168 402 424 691 104 117 473 483 679 674 80 73 156 148
170 166 15 19 46 42 71 53 l45 19 61 -111 c34 -61 99 -176 145 -255z m11298
-2091 c12 -33 99 -214 193 -403 94 -188 226 -454 293 -592 68 -137 176 -349
240 -470 194 -366 184 -343 179 -400 -11 -113 -57 -200 -162 -308 -158 -162
-409 -299 -893 -490 -733 -289 -1100 -320 -1397 -119 -58 40 -112 94 -112 113
0 6 -28 58 -62 117 -122 211 -181 351 -274 651 -47 149 -206 723 -201 726 1 0
61 25 132 54 200 82 729 347 940 471 306 180 821 532 942 642 12 11 26 18 31
14 5 -3 33 10 62 29 29 19 56 32 60 30 4 -2 17 -32 29 -65z"/>
<path d="M8970 16851 c0 -5 -50 -85 -111 -177 -130 -198 -178 -289 -224 -427
-66 -199 -70 -234 -70 -622 0 -370 0 -367 51 -484 22 -48 26 -52 41 -40 43 36
85 122 103 212 35 175 69 423 89 647 20 225 34 306 90 540 16 69 37 163 45
210 8 47 18 100 22 118 6 28 4 32 -15 32 -11 0 -21 -4 -21 -9z"/>
<path d="M15576 15473 c-8 -8 14 -42 89 -133 117 -141 438 -575 530 -715 178
-270 554 -913 665 -1135 40 -81 141 -256 167 -289 12 -17 11 24 -6 143 -24
162 -49 232 -186 511 -106 216 -197 381 -296 538 -136 214 -248 349 -623 745
-116 123 -231 246 -255 273 -45 52 -74 73 -85 62z"/>
<path d="M10492 11093 c-28 -75 -143 -503 -165 -613 -44 -218 -52 -304 -51
-540 1 -484 89 -887 356 -1630 80 -221 87 -237 171 -375 45 -73 63 -94 66 -80
2 11 1 92 -1 180 -5 159 -6 162 -81 460 -101 401 -167 687 -216 935 -86 440
-106 649 -98 1012 5 229 13 322 53 626 6 43 4 52 -8 52 -9 0 -20 -12 -26 -27z"/>
</g>
</svg>
