<svg version="1.1" id="Layer_1" xmlns="http://www.w3.org/2000/svg" xmlns:xlink="http://www.w3.org/1999/xlink" x="0px" y="0px"
	 width="100%" viewBox="0 0 512 512" enable-background="new 0 0 512 512" xml:space="preserve">
<path fill="#000000" opacity="1.000000" stroke="none" 
	d="
M294.000000,0.999998 
	C366.932983,1.000000 439.865967,1.000000 513.000000,1.000000 
	C513.000000,86.687454 513.000000,172.375076 512.531372,258.531342 
	C483.260895,259.000000 454.459106,259.000000 424.832764,259.000000 
	C423.636230,301.544983 409.070374,338.700043 380.424316,370.038300 
	C351.604248,401.566956 315.724731,420.420685 273.437073,424.457489 
	C218.816574,429.671631 172.448578,410.644867 133.276047,370.778320 
	C147.080658,357.409424 160.665344,344.253510 174.994095,330.377014 
	C127.520607,330.377014 81.370018,330.377014 35.169762,330.377014 
	C35.169762,376.039520 35.169762,421.324890 35.169762,467.850494 
	C37.506718,466.541046 39.485470,465.908997 40.812981,464.610931 
	C49.235046,456.375580 57.441269,447.919464 65.864426,439.685272 
	C71.328339,434.343933 71.434860,434.461273 76.413635,439.911926 
	C77.086914,440.648987 77.778893,441.383789 78.546356,442.017761 
	C92.414070,453.474304 106.035576,465.084534 121.547356,474.567963 
	C139.525711,485.559387 158.400024,494.247833 178.226074,500.782227 
	C194.630859,506.188995 211.567932,509.892731 228.930267,511.087341 
	C229.660583,511.137604 230.311890,512.336304 231.000000,513.000000 
	C154.401962,513.000000 77.803932,513.000000 1.000000,513.000000 
	C1.000000,426.979218 1.000000,340.958252 1.468657,254.468658 
	C30.565475,254.000000 59.193638,254.000000 88.430359,254.000000 
	C90.037659,209.800842 105.325233,171.608490 135.735855,139.744034 
	C166.427856,107.584747 204.341385,90.172607 248.267990,87.278976 
	C283.800049,84.938332 316.811249,95.103775 346.857208,114.093544 
	C358.775665,121.626289 369.631409,130.692017 379.018494,141.190491 
	C365.186005,155.123886 351.865051,168.541992 337.814575,182.694962 
	C385.542480,182.694962 431.628754,182.694962 477.722168,182.694962 
	C477.722168,136.993042 477.722168,91.596733 477.722168,44.902130 
	C475.268799,46.446575 473.300049,47.201706 471.996307,48.584042 
	C462.384033,58.776169 452.904480,69.093445 443.398712,79.354546 
	C424.772430,60.723747 406.030365,45.832275 384.898224,33.926914 
	C358.510864,19.060860 330.766418,8.245339 300.648651,3.899715 
	C298.341003,3.566749 296.212036,1.995615 294.000000,0.999998 
M280.502594,217.001877 
	C272.132355,212.261688 263.852661,207.351730 255.367233,202.827576 
	C246.328079,198.008148 237.325455,192.992493 227.878723,189.102158 
	C218.936966,185.419830 213.010696,190.054733 213.005493,199.625992 
	C212.990173,227.769791 212.999969,255.913605 213.000046,284.057404 
	C213.000076,294.881958 212.954865,305.706757 213.019653,316.530914 
	C213.052429,322.003601 215.109116,323.697357 220.410126,324.064697 
	C227.803558,324.576996 233.723541,320.826416 239.666580,317.590424 
	C258.688690,307.232758 277.504852,296.496857 296.399750,285.905579 
	C311.036682,277.701050 325.727234,269.589691 340.271698,261.224396 
	C344.090851,259.027771 346.459167,254.616562 340.643524,250.986145 
	C334.444305,247.116333 327.982727,243.662811 321.598328,240.094452 
	C308.093658,232.546463 294.564697,225.042038 280.502594,217.001877 
z"/>
<path fill="#428BCA" opacity="1.000000" stroke="none" 
	d="
M231.468658,513.000000 
	C230.311890,512.336304 229.660583,511.137604 228.930267,511.087341 
	C211.567932,509.892731 194.630859,506.188995 178.226074,500.782227 
	C158.400024,494.247833 139.525711,485.559387 121.547356,474.567963 
	C106.035576,465.084534 92.414070,453.474304 78.546356,442.017761 
	C77.778893,441.383789 77.086914,440.648987 76.413635,439.911926 
	C71.434860,434.461273 71.328339,434.343933 65.864426,439.685272 
	C57.441269,447.919464 49.235046,456.375580 40.812981,464.610931 
	C39.485470,465.908997 37.506718,466.541046 35.169762,467.850494 
	C35.169762,421.324890 35.169762,376.039520 35.169762,330.377014 
	C81.370018,330.377014 127.520607,330.377014 174.994095,330.377014 
	C160.665344,344.253510 147.080658,357.409424 133.276047,370.778320 
	C172.448578,410.644867 218.816574,429.671631 273.437073,424.457489 
	C315.724731,420.420685 351.604248,401.566956 380.424316,370.038300 
	C409.070374,338.700043 423.636230,301.544983 424.832764,259.000000 
	C454.459106,259.000000 483.260895,259.000000 512.531372,259.000000 
	C513.000000,269.687561 513.000000,280.375122 512.576172,291.558044 
	C511.768311,293.340271 511.252808,294.604218 511.023102,295.918091 
	C510.069153,301.374908 509.631378,306.961914 508.205627,312.287354 
	C505.818298,321.204315 502.579681,329.891571 500.129272,338.793854 
	C494.551544,359.057617 484.559204,377.248718 473.518707,394.830353 
	C462.029816,413.126007 447.964447,429.356293 432.068878,444.105103 
	C414.461823,460.441864 395.228516,474.407745 373.701538,484.875031 
	C360.580383,491.255066 346.800232,496.386963 333.038849,501.303589 
	C324.657654,504.298004 315.820099,506.179352 307.056732,507.890900 
	C299.206970,509.423981 291.173676,510.009003 283.238861,511.135712 
	C282.747589,511.205505 282.409393,512.353638 282.000000,513.000000 
	C265.312439,513.000000 248.624878,513.000000 231.468658,513.000000 
z"/>
<path fill="#F0AD4E" opacity="1.000000" stroke="none" 
	d="
M293.531342,0.999998 
	C296.212036,1.995615 298.341003,3.566749 300.648651,3.899715 
	C330.766418,8.245339 358.510864,19.060860 384.898224,33.926914 
	C406.030365,45.832275 424.772430,60.723747 443.398712,79.354546 
	C452.904480,69.093445 462.384033,58.776169 471.996307,48.584042 
	C473.300049,47.201706 475.268799,46.446575 477.722168,44.902130 
	C477.722168,91.596733 477.722168,136.993042 477.722168,182.694962 
	C431.628754,182.694962 385.542480,182.694962 337.814575,182.694962 
	C351.865051,168.541992 365.186005,155.123886 379.018494,141.190491 
	C369.631409,130.692017 358.775665,121.626289 346.857208,114.093544 
	C316.811249,95.103775 283.800049,84.938332 248.267990,87.278976 
	C204.341385,90.172607 166.427856,107.584747 135.735855,139.744034 
	C105.325233,171.608490 90.037659,209.800842 88.430359,254.000000 
	C59.193638,254.000000 30.565475,254.000000 1.468657,254.000000 
	C1.000000,241.645767 1.000000,229.291550 1.423697,216.451736 
	C2.194062,215.686798 2.774662,215.461456 2.853411,215.120270 
	C5.214497,204.890915 6.830341,194.427704 10.015267,184.465454 
	C14.332319,170.961990 19.078535,157.486435 25.017658,144.635284 
	C35.079163,122.864098 48.599495,103.267761 64.768768,85.416206 
	C79.111633,69.581085 94.990143,55.706551 112.628227,43.699249 
	C129.323944,32.333481 147.119812,23.316813 166.077866,16.334568 
	C181.164154,10.778296 196.395844,6.110538 212.357193,3.892875 
	C214.660965,3.572791 216.790070,1.995500 219.000000,1.000001 
	C243.687561,1.000000 268.375122,1.000000 293.531342,0.999998 
z"/>
<path fill="#000000" opacity="1.000000" stroke="none" 
	d="
M282.468628,513.000000 
	C282.409393,512.353638 282.747589,511.205505 283.238861,511.135712 
	C291.173676,510.009003 299.206970,509.423981 307.056732,507.890900 
	C315.820099,506.179352 324.657654,504.298004 333.038849,501.303589 
	C346.800232,496.386963 360.580383,491.255066 373.701538,484.875031 
	C395.228516,474.407745 414.461823,460.441864 432.068878,444.105103 
	C447.964447,429.356293 462.029816,413.126007 473.518707,394.830353 
	C484.559204,377.248718 494.551544,359.057617 500.129272,338.793854 
	C502.579681,329.891571 505.818298,321.204315 508.205627,312.287354 
	C509.631378,306.961914 510.069153,301.374908 511.023102,295.918091 
	C511.252808,294.604218 511.768311,293.340271 512.576172,292.026672 
	C513.000000,365.595306 513.000000,439.190643 513.000000,513.000000 
	C436.312561,513.000000 359.624939,513.000000 282.468628,513.000000 
z"/>
<path fill="#000000" opacity="1.000000" stroke="none" 
	d="
M218.531342,1.000001 
	C216.790070,1.995500 214.660965,3.572791 212.357193,3.892875 
	C196.395844,6.110538 181.164154,10.778296 166.077866,16.334568 
	C147.119812,23.316813 129.323944,32.333481 112.628227,43.699249 
	C94.990143,55.706551 79.111633,69.581085 64.768768,85.416206 
	C48.599495,103.267761 35.079163,122.864098 25.017658,144.635284 
	C19.078535,157.486435 14.332319,170.961990 10.015267,184.465454 
	C6.830341,194.427704 5.214497,204.890915 2.853411,215.120270 
	C2.774662,215.461456 2.194062,215.686798 1.423697,215.983078 
	C1.000000,144.405792 1.000000,72.811577 1.000000,1.000000 
	C73.354080,1.000000 145.708389,1.000000 218.531342,1.000001 
z"/>
<path fill="#428BCA" opacity="1.000000" stroke="none" 
	d="
M280.774139,217.260803 
	C294.564697,225.042038 308.093658,232.546463 321.598328,240.094452 
	C327.982727,243.662811 334.444305,247.116333 340.643524,250.986145 
	C346.459167,254.616562 344.090851,259.027771 340.271698,261.224396 
	C325.727234,269.589691 311.036682,277.701050 296.399750,285.905579 
	C277.504852,296.496857 258.688690,307.232758 239.666580,317.590424 
	C233.723541,320.826416 227.803558,324.576996 220.410126,324.064697 
	C215.109116,323.697357 213.052429,322.003601 213.019653,316.530914 
	C212.954865,305.706757 213.000076,294.881958 213.000046,284.057404 
	C212.999969,255.913605 212.990173,227.769791 213.005493,199.625992 
	C213.010696,190.054733 218.936966,185.419830 227.878723,189.102158 
	C237.325455,192.992493 246.328079,198.008148 255.367233,202.827576 
	C263.852661,207.351730 272.132355,212.261688 280.774139,217.260803 
z"/>
</svg>